<svg width="512" height="512" viewBox="0 0 1024 1024" fill="none" xmlns="http://www.w3.org/2000/svg">
  <defs>
    <linearGradient id="bg" x1="0" y1="0" x2="1024" y2="1024">
      <stop offset="0%" stop-color="#F5F7FA"/>
      <stop offset="100%" stop-color="#D9E2F2"/>
    </linearGradient>

    <linearGradient id="blue" x1="0" y1="0" x2="1" y2="1">
      <stop offset="0%" stop-color="#173B7A"/>
      <stop offset="100%" stop-color="#4F86F7"/>
    </linearGradient>

    <filter id="shadow" x="-20%" y="-20%" width="140%" height="140%">
      <feDropShadow dx="0" dy="8" stdDeviation="12" flood-opacity="0.18"/>
    </filter>
  </defs>

  <circle cx="512" cy="512" r="480" fill="url(#bg)" stroke="#A8BCE4" stroke-width="18"/>

  <g filter="url(#shadow)">
    <rect x="380" y="180" width="260" height="330" rx="24" fill="white" stroke="#274C8E" stroke-width="10"/>
    <rect x="455" y="145" width="110" height="40" rx="12" fill="#274C8E"/>

    <circle cx="435" cy="260" r="18" fill="#4F86F7"/>
    <path d="M426 260L434 268L446 252" stroke="white" stroke-width="5" stroke-linecap="round" stroke-linejoin="round"/>
    <line x1="470" y1="260" x2="580" y2="260" stroke="#8CA7D8" stroke-width="10" stroke-linecap="round"/>

    <circle cx="435" cy="330" r="18" fill="#4F86F7"/>
    <path d="M426 330L434 338L446 322" stroke="white" stroke-width="5" stroke-linecap="round" stroke-linejoin="round"/>
    <line x1="470" y1="330" x2="580" y2="330" stroke="#8CA7D8" stroke-width="10" stroke-linecap="round"/>

    <circle cx="435" cy="400" r="18" fill="#4F86F7"/>
    <path d="M426 400L434 408L446 392" stroke="white" stroke-width="5" stroke-linecap="round" stroke-linejoin="round"/>
    <line x1="470" y1="400" x2="580" y2="400" stroke="#8CA7D8" stroke-width="10" stroke-linecap="round"/>
  </g>

  <g filter="url(#shadow)">
    <rect x="690" y="250" width="150" height="220" rx="18" fill="#274C8E"/>
    <rect x="720" y="280" width="90" height="30" rx="6" fill="#DCE6F8"/>

    <g fill="#9CB7E8">
      <rect x="720" y="340" width="24" height="24" rx="4"/>
      <rect x="756" y="340" width="24" height="24" rx="4"/>
      <rect x="792" y="340" width="24" height="24" rx="4"/>

      <rect x="720" y="376" width="24" height="24" rx="4"/>
      <rect x="756" y="376" width="24" height="24" rx="4"/>
      <rect x="792" y="376" width="24" height="24" rx="4"/>

      <rect x="720" y="412" width="24" height="24" rx="4"/>
      <rect x="756" y="412" width="24" height="24" rx="4"/>
      <rect x="792" y="412" width="24" height="24" rx="4"/>
    </g>
  </g>

  <g filter="url(#shadow)">
    <rect x="170" y="420" width="40" height="100" rx="8" fill="#4F86F7"/>
    <rect x="230" y="370" width="40" height="150" rx="8" fill="#3F76E8"/>
    <rect x="290" y="320" width="40" height="200" rx="8" fill="#2E63D2"/>
    <rect x="350" y="260" width="40" height="260" rx="8" fill="#1F4FAF"/>

    <path d="M170 280C250 220 320 180 390 140" stroke="#2E63D2" stroke-width="10" stroke-linecap="round" fill="none"/>
    <path d="M385 135L395 150L375 148Z" fill="#2E63D2"/>
  </g>

  <g filter="url(#shadow)">
    <circle cx="640" cy="470" r="55" fill="url(#blue)"/>
    <text x="640" y="490" text-anchor="middle" font-size="58" font-family="Arial" fill="white" font-weight="bold">$</text>
  </g>

  <text x="512" y="700" text-anchor="middle" font-size="180" font-family="Arial" font-weight="900" fill="url(#blue)">
    C50
  </text>

  <text x="512" y="790" text-anchor="middle" font-size="52" font-family="Arial" fill="#274C8E" letter-spacing="12">
    CCB
  </text>

  <line x1="180" y1="770" x2="360" y2="770" stroke="#8CA7D8" stroke-width="6"/>
  <line x1="664" y1="770" x2="844" y2="770" stroke="#8CA7D8" stroke-width="6"/>

  <text x="512" y="860" text-anchor="middle" font-size="34" font-family="Arial" fill="#35558F">
    FINANÇAS • LANÇAMENTOS • CONFERÊNCIA
  </text>
</svg>
